# https://github.com/mikedh/trimesh
mtllib material.mtl
usemtl material_0
v 0.00000000 -0.45923815 -0.02651436
v 0.00000000 -0.49106209 0.09922787
v -0.19587637 -0.45693678 0.09926254
v -0.18597155 -0.42881053 -0.01700891
v -0.42881053 -0.18597155 -0.01700891
v -0.45693678 -0.19587637 0.09926254
v -0.49106209 0.00000000 0.09922787
v -0.45923815 0.00000000 -0.02651436
v 0.29013853 -0.29013853 -0.11921954
v 0.33757622 -0.33757622 -0.00606726
v 0.18597155 -0.42881053 -0.01700891
v 0.17159634 -0.33141128 -0.16004265
v 0.42881053 -0.18597155 -0.01700891
v 0.45693678 -0.19587637 0.09926254
v 0.35671600 -0.35671600 0.09926023
v -0.17159634 -0.33141128 -0.16004265
v -0.18597155 -0.42881053 -0.01700891
v -0.33757622 -0.33757622 -0.00606726
v -0.29013853 -0.29013853 -0.11921954
v 0.00000000 -0.35235021 -0.18087928
v -0.17159634 -0.33141128 -0.16004265
v -0.45693678 0.19587637 0.09926254
v -0.42881053 0.18597155 -0.01700891
v 0.42881053 0.18597155 -0.01700891
v 0.45693678 0.19587637 0.09926254
v 0.49106209 0.00000000 0.09922787
v 0.45923815 0.00000000 -0.02651436
v -0.33141128 -0.17159634 -0.16004265
v -0.19587637 -0.45693678 0.09926254
v -0.35671600 -0.35671600 0.09926023
v -0.33757622 0.33757622 -0.00606726
v -0.35671600 0.35671600 0.09926023
v -0.19587637 0.45693678 0.09926254
v -0.18597155 0.42881053 -0.01700891
v -0.33141128 0.17159634 -0.16004265
v -0.42881053 0.18597155 -0.01700891
v -0.29013853 0.29013853 -0.11921954
v -0.35235021 0.00000000 -0.18087928
v -0.45923815 0.00000000 -0.02651436
v -0.42881053 0.18597155 -0.01700891
v -0.33141128 0.17159634 -0.16004265
v -0.35235021 0.00000000 -0.18087928
v -0.18272119 0.18272119 -0.24982286
v 0.00000000 0.19253642 -0.28036087
v 0.00000000 0.00000000 -0.31369555
v -0.19253642 0.00000000 -0.28036087
v 0.18272119 0.18272119 -0.24982286
v 0.19253642 0.00000000 -0.28036087
v 0.00000000 -0.19253642 -0.28036087
v -0.18272119 -0.18272119 -0.24982286
v 0.18272119 -0.18272119 -0.24982286
v -0.29013853 0.29013853 -0.11921954
v -0.17159634 0.33141128 -0.16004265
v 0.00000000 0.35235021 -0.18087928
v 0.17159634 0.33141128 -0.16004265
v 0.17159634 0.33141128 -0.16004265
v 0.29013853 0.29013853 -0.11921954
v 0.33141128 0.17159634 -0.16004265
v 0.18272119 0.18272119 -0.24982286
v 0.33141128 0.17159634 -0.16004265
v 0.35235021 0.00000000 -0.18087928
v 0.33141128 -0.17159634 -0.16004265
v 0.18272119 -0.18272119 -0.24982286
v 0.33141128 -0.17159634 -0.16004265
v 0.00000000 -0.19253642 -0.28036087
v 0.00000000 -0.35235021 -0.18087928
v -0.17159634 -0.33141128 -0.16004265
v -0.18272119 -0.18272119 -0.24982286
v -0.33141128 -0.17159634 -0.16004265
v 0.45693678 -0.19587637 0.09926254
v 0.42881053 -0.18597155 -0.01700891
v 0.00000000 0.49106209 0.09922787
v 0.00000000 0.45923815 -0.02651436
v 0.33757622 0.33757622 -0.00606726
v 0.18597155 0.42881053 -0.01700891
v 0.19587637 0.45693678 0.09926254
v 0.35671600 0.35671600 0.09926023
v 0.19587637 -0.45693678 0.09926254
v 0.35235021 0.00000000 -0.18087928
v 0.33141128 -0.17159634 -0.16004265
v 0.19587637 0.45693678 0.09926254
v 0.18597155 0.42881053 -0.01700891
v 0.19944055 0.46525109 0.31369555
v 0.36320690 0.36320690 0.31369555
v -0.17159634 0.33141128 -0.16004265
v -0.45693678 0.19587637 0.09926254
v 0.00000000 0.35235021 -0.18087928
v 0.17159634 0.33141128 -0.16004265
v 0.19944055 -0.46525109 0.31369555
v 0.00000000 -0.50000000 0.31369555
v -0.19944055 -0.46525109 0.31369555
v 0.36320690 -0.36320690 0.31369555
v -0.46525109 -0.19944055 0.31369555
v -0.50000000 0.00000000 0.31369555
v -0.46525109 0.19944055 0.31369555
v -0.36320690 -0.36320690 0.31369555
v 0.46525109 0.19944055 0.31369555
v 0.50000000 0.00000000 0.31369555
v 0.46525109 -0.19944055 0.31369555
v -0.19944055 0.46525109 0.31369555
v 0.00000000 0.50000000 0.31369555
v 0.19944055 0.46525109 0.31369555
v -0.36320690 0.36320690 0.31369555
v 0.46525109 -0.19944055 0.31369555
v -0.46525109 0.19944055 0.31369555
v -0.19944055 -0.46525109 0.31369555
v 0.00000000 -0.50000000 0.31369555
v 0.19944055 -0.46525109 0.31369555
v 0.36320690 -0.36320690 0.31369555
v 0.46525109 -0.19944055 0.31369555
v 0.50000000 0.00000000 0.31369555
v 0.46525109 0.19944055 0.31369555
v 0.36320690 0.36320690 0.31369555
v 0.19944055 0.46525109 0.31369555
v 0.00000000 0.50000000 0.31369555
v -0.19944055 0.46525109 0.31369555
v -0.36320690 0.36320690 0.31369555
v -0.46525109 0.19944055 0.31369555
v -0.50000000 0.00000000 0.31369555
v -0.46525109 -0.19944055 0.31369555
v -0.36320690 -0.36320690 0.31369555
v -0.19944055 -0.46525109 0.31369555
vn 0.00000000 -0.91037333 -0.41378788
vn 0.00010000 -0.98966553 -0.14339501
vn -0.35291970 -0.92455161 -0.14370802
vn -0.32869840 -0.85689584 -0.39709807
vn -0.85688997 -0.32859615 -0.39719535
vn -0.92457217 -0.35278938 -0.14389567
vn -0.98965134 0.00000000 -0.14349294
vn -0.91037333 0.00000000 -0.41378788
vn 0.55917884 -0.55917884 -0.61207684
vn 0.65403008 -0.65403008 -0.38011748
vn 0.32869840 -0.85689584 -0.39709807
vn 0.30811860 -0.65183935 -0.69294183
vn 0.85689584 -0.32869840 -0.39709807
vn 0.92455161 -0.35291970 -0.14370802
vn 0.69968586 -0.69968586 -0.14449708
vn -0.30811860 -0.65183935 -0.69294183
vn -0.32869840 -0.85689584 -0.39709807
vn -0.65403008 -0.65403008 -0.38011748
vn -0.55917884 -0.55917884 -0.61207684
vn 0.00000000 -0.68857074 -0.72516918
vn -0.30809852 -0.65189686 -0.69289666
vn -0.92455161 0.35291970 -0.14370802
vn -0.85689584 0.32869840 -0.39709807
vn 0.85688997 0.32859615 -0.39719535
vn 0.92457217 0.35278938 -0.14389567
vn 0.98965134 0.00000000 -0.14349294
vn 0.91037333 0.00000000 -0.41378788
vn -0.65183935 -0.30811860 -0.69294183
vn -0.35291970 -0.92455161 -0.14370802
vn -0.69968586 -0.69968586 -0.14449708
vn -0.65403008 0.65403008 -0.38011748
vn -0.69968586 0.69968586 -0.14449708
vn -0.35288200 0.92455284 -0.14379267
vn -0.32869840 0.85689584 -0.39709807
vn -0.65183935 0.30811860 -0.69294183
vn -0.85689584 0.32869840 -0.39709807
vn -0.55917884 0.55917884 -0.61207684
vn -0.68857074 0.00000000 -0.72516918
vn -0.91037333 0.00000000 -0.41378788
vn -0.85689584 0.32869840 -0.39709807
vn -0.65179418 0.30809725 -0.69299382
vn -0.68857074 0.00000000 -0.72516918
vn -0.33378941 0.33378941 -0.88157204
vn -0.00010000 0.35519679 -0.93479154
vn 0.00000000 0.00000000 -1.00000000
vn -0.35519679 0.00010000 -0.93479154
vn 0.33381884 0.33381884 -0.88154975
vn 0.35519679 -0.00010000 -0.93479154
vn 0.00000000 -0.35519679 -0.93479155
vn -0.33381884 -0.33381884 -0.88154975
vn 0.33378941 -0.33378941 -0.88157204
vn -0.55917884 0.55917884 -0.61207684
vn -0.30811860 0.65183935 -0.69294183
vn 0.00000000 0.68857074 -0.72516918
vn 0.30811860 0.65183935 -0.69294183
vn 0.30811860 0.65183935 -0.69294183
vn 0.55917884 0.55917884 -0.61207684
vn 0.65183935 0.30811860 -0.69294183
vn 0.33381884 0.33381884 -0.88154975
vn 0.65183935 0.30811860 -0.69294183
vn 0.68857074 0.00000000 -0.72516918
vn 0.65183935 -0.30811860 -0.69294183
vn 0.33381884 -0.33381884 -0.88154975
vn 0.65183935 -0.30811860 -0.69294183
vn 0.00000000 -0.35519679 -0.93479155
vn 0.00000000 -0.68857074 -0.72516918
vn -0.30811860 -0.65183935 -0.69294183
vn -0.33381884 -0.33381884 -0.88154975
vn -0.65183935 -0.30811860 -0.69294183
vn 0.92455161 -0.35291970 -0.14370802
vn 0.85689584 -0.32869840 -0.39709807
vn 0.00000000 0.98965134 -0.14349294
vn 0.00000000 0.91037333 -0.41378788
vn 0.65403008 0.65403008 -0.38011748
vn 0.32869840 0.85689584 -0.39709807
vn 0.35291970 0.92455161 -0.14370802
vn 0.69968586 0.69968586 -0.14449708
vn 0.35288200 -0.92455284 -0.14379267
vn 0.68857074 0.00000000 -0.72516918
vn 0.65189686 -0.30809852 -0.69289666
vn 0.35291970 0.92455161 -0.14370802
vn 0.32869840 0.85689584 -0.39709807
vn 0.27100728 0.70921905 0.65081748
vn 0.54119571 0.54119571 0.64359490
vn -0.30809725 0.65179418 -0.69299382
vn -0.92455161 0.35291970 -0.14370802
vn 0.00000000 0.68857074 -0.72516918
vn 0.30809852 0.65189686 -0.69289666
vn 0.27100728 -0.70921905 0.65081748
vn 0.00000000 -0.75561649 0.65501429
vn -0.27100728 -0.70921905 0.65081748
vn 0.54119571 -0.54119571 0.64359490
vn -0.70921905 -0.27100728 0.65081748
vn -0.75561649 0.00000000 0.65501429
vn -0.70921905 0.27100728 0.65081748
vn -0.54119571 -0.54119571 0.64359490
vn 0.70921905 0.27100728 0.65081748
vn 0.75561649 0.00000000 0.65501429
vn 0.70921905 -0.27100728 0.65081748
vn -0.27100728 0.70921905 0.65081748
vn 0.00000000 0.75561649 0.65501429
vn 0.27100728 0.70921905 0.65081748
vn -0.54119571 0.54119571 0.64359490
vn 0.70921905 -0.27100728 0.65081748
vn -0.70921905 0.27100728 0.65081748
vn -0.27100728 -0.70921905 0.65081748
vn 0.00000000 -0.75561649 0.65501429
vn 0.27100728 -0.70921905 0.65081748
vn 0.54119571 -0.54119571 0.64359490
vn 0.70921905 -0.27100728 0.65081748
vn 0.75561649 0.00000000 0.65501429
vn 0.70921905 0.27100728 0.65081748
vn 0.54119571 0.54119571 0.64359490
vn 0.27100728 0.70921905 0.65081748
vn 0.00000000 0.75561649 0.65501429
vn -0.27100728 0.70921905 0.65081748
vn -0.54119571 0.54119571 0.64359490
vn -0.70921905 0.27100728 0.65081748
vn -0.75561649 0.00000000 0.65501429
vn -0.70921905 -0.27100728 0.65081748
vn -0.54119571 -0.54119571 0.64359490
vn -0.27100728 -0.70921905 0.65081748
vt 0.59594800 0.39750500
vt 0.65403000 0.39181300
vt 0.64364800 0.32665400
vt 0.59043000 0.33531400
vt 0.12631500 0.38299900
vt 0.18021700 0.38008200
vt 0.17318700 0.29870300
vt 0.11531500 0.30619600
vt 0.55137300 0.54535200
vt 0.60707800 0.55347900
vt 0.60450700 0.47461200
vt 0.53254300 0.49040600
vt 0.59246300 0.62390200
vt 0.64552700 0.63386200
vt 0.65579700 0.55768600
vt 0.05008200 0.49946800
vt 0.11901300 0.53258900
vt 0.13138800 0.46174800
vt 0.07545200 0.45535500
vt 0.51871600 0.42078600
vt 0.51955400 0.36187600
vt 0.16074300 0.23389900
vt 0.10782600 0.24420700
vt 0.58291600 0.15673600
vt 0.63681800 0.15382000
vt 0.62978800 0.07244000
vt 0.57191600 0.07993300
vt 0.05488800 0.40102100
vt 0.17236700 0.54089700
vt 0.18021600 0.46443900
vt 0.84991600 0.55347900
vt 0.89863400 0.55768600
vt 0.90131100 0.47337100
vt 0.84734400 0.47461200
vt 0.76745400 0.58865500
vt 0.83530000 0.62390200
vt 0.79421000 0.54535200
vt 0.56657700 0.69487100
vt 0.52648700 0.64932700
vt 0.46131900 0.70250500
vt 0.50357400 0.74084500
vt 0.03885900 0.33186500
vt 0.54119300 0.80298800
vt 0.57999500 0.87611400
vt 0.65682600 0.83382800
vt 0.61188400 0.75906300
vt 0.61944400 0.94301300
vt 0.69433800 0.90661100
vt 0.72622800 0.78956000
vt 0.67997200 0.72084500
vt 0.75822300 0.86087100
vt 0.46284600 0.78209100
vt 0.47710400 0.83800300
vt 0.50821800 0.90907900
vt 0.55059100 0.96950400
vt 0.50668400 0.27320500
vt 0.53205300 0.22909200
vt 0.51148900 0.17475800
vt 0.46067200 0.21485100
vt 0.64550200 0.99481800
vt 0.71747200 0.96489000
vt 0.77583100 0.91767700
vt 0.48047800 0.52890100
vt 0.52461700 0.58865500
vt 0.46099100 0.45763700
vt 0.77583100 0.75068100
vt 0.72881400 0.68901800
vt 0.00407000 0.44111400
vt 0.63390300 0.66370400
vt 0.61734400 0.00763600
vt 0.56442700 0.01794500
vt 0.89686700 0.39181300
vt 0.83878500 0.39750500
vt 0.58798900 0.23548500
vt 0.57561500 0.30632700
vt 0.62896900 0.31463400
vt 0.63681700 0.23817600
vt 0.65847400 0.47337100
vt 0.49546000 0.10560200
vt 0.49442900 0.04669500
vt 0.88648500 0.32665400
vt 0.83326700 0.33531400
vt 0.72402900 0.31727300
vt 0.73202100 0.23942400
vt 0.77538000 0.49040600
vt 0.88836400 0.63386200
vt 0.76155300 0.42078600
vt 0.76239100 0.36187600
vt 0.75363900 0.47604000
vt 0.74912900 0.39299900
vt 0.73854300 0.32665400
vt 0.75091400 0.56189000
vt 0.27541900 0.37979500
vt 0.26827700 0.29693500
vt 0.25559100 0.23095200
vt 0.27541900 0.46568700
vt 0.73202100 0.15353200
vt 0.72487900 0.07067200
vt 0.71219200 0.00468900
vt 0.99647600 0.47604000
vt 0.99196600 0.39299900
vt 0.98138000 0.32665400
vt 0.99375100 0.56189000
vt 0.74045600 0.63945200
vt 0.98329300 0.63945200
vt 0.26742700 0.54353600
vt 0.00665000 0.81232300
vt 0.03745800 0.89714500
vt 0.09534300 0.96117800
vt 0.17582300 0.99342100
vt 0.26691900 0.99342100
vt 0.35264800 0.96293800
vt 0.41736400 0.90566500
vt 0.44995200 0.82603600
vt 0.44995200 0.73590200
vt 0.41914400 0.65108000
vt 0.36125800 0.58704700
vt 0.28077900 0.55480400
vt 0.18968200 0.55480400
vt 0.10395400 0.58528700
vt 0.03923700 0.64256000
vt 0.00665000 0.72218900
f 1/1/1 2/2/2 3/3/3
f 1/1/1 3/3/3 4/4/4
f 5/5/5 6/6/6 7/7/7
f 5/5/5 7/7/7 8/8/8
f 9/9/9 10/10/10 11/11/11
f 9/9/9 11/11/11 12/12/12
f 13/13/13 14/14/14 15/15/15
f 13/13/13 15/15/15 10/10/10
f 16/16/16 17/17/17 18/18/18
f 16/16/16 18/18/18 19/19/19
f 20/20/20 1/1/1 4/4/4
f 20/20/20 4/4/4 21/21/21
f 12/12/12 11/11/11 1/1/1
f 12/12/12 1/1/1 20/20/20
f 8/8/8 7/7/7 22/22/22
f 8/8/8 22/22/22 23/23/23
f 24/24/24 25/25/25 26/26/26
f 24/24/24 26/26/26 27/27/27
f 19/19/19 18/18/18 5/5/5
f 19/19/19 5/5/5 28/28/28
f 17/17/17 29/29/29 30/30/30
f 17/17/17 30/30/30 18/18/18
f 31/31/31 32/32/32 33/33/33
f 31/31/31 33/33/33 34/34/34
f 35/35/35 36/36/36 31/31/31
f 35/35/35 31/31/31 37/37/37
f 38/38/38 39/39/39 40/40/40
f 38/38/38 40/40/40 41/41/41
f 28/28/28 5/5/5 8/8/8
f 28/28/28 8/8/8 42/42/42
f 43/43/43 44/44/44 45/45/45
f 43/43/43 45/45/45 46/46/46
f 44/44/44 47/47/47 48/48/48
f 44/44/44 48/48/48 45/45/45
f 46/46/46 45/45/45 49/49/49
f 46/46/46 49/49/49 50/50/50
f 45/45/45 48/48/48 51/51/51
f 45/45/45 51/51/51 49/49/49
f 52/52/52 53/53/53 43/43/43
f 52/52/52 43/43/43 41/41/41
f 53/53/53 54/54/54 44/44/44
f 53/53/53 44/44/44 43/43/43
f 54/54/54 55/55/55 47/47/47
f 54/54/54 47/47/47 44/44/44
f 56/56/56 57/57/57 58/58/58
f 56/56/56 58/58/58 59/59/59
f 47/47/47 60/60/60 61/61/61
f 47/47/47 61/61/61 48/48/48
f 48/48/48 61/61/61 62/62/62
f 48/48/48 62/62/62 51/51/51
f 63/63/63 64/64/64 9/9/9
f 63/63/63 9/9/9 12/12/12
f 65/65/65 63/63/63 12/12/12
f 65/65/65 12/12/12 20/20/20
f 50/50/50 49/49/49 66/66/66
f 50/50/50 66/66/66 67/67/67
f 28/28/28 68/68/68 16/16/16
f 28/28/28 16/16/16 19/19/19
f 38/38/38 46/46/46 50/50/50
f 38/38/38 50/50/50 69/69/69
f 41/41/41 43/43/43 46/46/46
f 41/41/41 46/46/46 38/38/38
f 27/27/27 26/26/26 70/70/70
f 27/27/27 70/70/70 71/71/71
f 34/34/34 33/33/33 72/72/72
f 34/34/34 72/72/72 73/73/73
f 57/57/57 74/74/74 24/24/24
f 57/57/57 24/24/24 58/58/58
f 18/18/18 30/30/30 6/6/6
f 18/18/18 6/6/6 5/5/5
f 75/75/75 76/76/76 77/77/77
f 75/75/75 77/77/77 74/74/74
f 10/10/10 15/15/15 78/78/78
f 10/10/10 78/78/78 11/11/11
f 64/64/64 13/13/13 10/10/10
f 64/64/64 10/10/10 9/9/9
f 79/79/79 27/27/27 71/71/71
f 79/79/79 71/71/71 80/80/80
f 58/58/58 24/24/24 27/27/27
f 58/58/58 27/27/27 79/79/79
f 73/73/73 72/72/72 81/81/81
f 73/73/73 81/81/81 82/82/82
f 77/77/77 76/76/76 83/83/83
f 77/77/77 83/83/83 84/84/84
f 37/37/37 31/31/31 34/34/34
f 37/37/37 34/34/34 85/85/85
f 11/11/11 78/78/78 2/2/2
f 11/11/11 2/2/2 1/1/1
f 36/36/36 86/86/86 32/32/32
f 36/36/36 32/32/32 31/31/31
f 74/74/74 77/77/77 25/25/25
f 74/74/74 25/25/25 24/24/24
f 56/56/56 75/75/75 74/74/74
f 56/56/56 74/74/74 57/57/57
f 87/87/87 73/73/73 82/82/82
f 87/87/87 82/82/82 88/88/88
f 85/85/85 34/34/34 73/73/73
f 85/85/85 73/73/73 87/87/87
f 89/89/89 90/90/90 2/2/2
f 89/89/89 2/2/2 78/78/78
f 90/90/90 91/91/91 3/3/3
f 90/90/90 3/3/3 2/2/2
f 92/92/92 89/89/89 78/78/78
f 92/92/92 78/78/78 15/15/15
f 93/93/93 94/94/94 7/7/7
f 93/93/93 7/7/7 6/6/6
f 94/94/94 95/95/95 22/22/22
f 94/94/94 22/22/22 7/7/7
f 96/96/96 93/93/93 6/6/6
f 96/96/96 6/6/6 30/30/30
f 97/97/97 98/98/98 26/26/26
f 97/97/97 26/26/26 25/25/25
f 98/98/98 99/99/99 70/70/70
f 98/98/98 70/70/70 26/26/26
f 84/84/84 97/97/97 25/25/25
f 84/84/84 25/25/25 77/77/77
f 100/100/100 101/101/101 72/72/72
f 100/100/100 72/72/72 33/33/33
f 101/101/101 102/102/102 81/81/81
f 101/101/101 81/81/81 72/72/72
f 103/103/103 100/100/100 33/33/33
f 103/103/103 33/33/33 32/32/32
f 15/15/15 14/14/14 104/104/104
f 15/15/15 104/104/104 92/92/92
f 32/32/32 86/86/86 105/105/105
f 32/32/32 105/105/105 103/103/103
f 30/30/30 29/29/29 106/106/106
f 30/30/30 106/106/106 96/96/96
f 120/120/120 118/118/118 119/119/119
f 118/118/118 120/120/120 121/121/121
f 118/118/118 121/121/121 117/117/117
f 117/117/117 121/121/121 122/122/122
f 117/117/117 122/122/122 116/116/116
f 116/116/116 122/122/122 107/107/107
f 116/116/116 107/107/107 115/115/115
f 115/115/115 107/107/107 108/108/108
f 115/115/115 108/108/108 114/114/114
f 114/114/114 108/108/108 109/109/109
f 114/114/114 109/109/109 113/113/113
f 113/113/113 109/109/109 110/110/110
f 113/113/113 110/110/110 112/112/112
f 112/112/112 110/110/110 111/111/111